<svg width="12" height="12" viewBox="0 0 12 12" fill="none" xmlns="http://www.w3.org/2000/svg">
<path d="M7.55747 0.935345C7.17659 0.535414 6.54361 0.519976 6.14368 0.900862C5.74375 1.28175 5.72831 1.91472 6.1092 2.31466L7.55747 0.935345ZM11 6L11.7241 6.68965C12.092 6.30345 12.092 5.69655 11.7241 5.31034L11 6ZM6.1092 9.68534C5.72831 10.0853 5.74375 10.7183 6.14368 11.0991C6.54361 11.48 7.17659 11.4646 7.55747 11.0647L6.1092 9.68534ZM1 5C0.447715 5 0 5.44771 0 6C0 6.55228 0.447715 7 1 7L1 5ZM6.1092 2.31466L10.2759 6.68965L11.7241 5.31034L7.55747 0.935345L6.1092 2.31466ZM10.2759 5.31034L6.1092 9.68534L7.55747 11.0647L11.7241 6.68965L10.2759 5.31034ZM11 5L1 5L1 7L11 7V5Z" fill="white"/>
</svg>
