<svg width="12" height="12" viewBox="0 0 12 12" fill="none" xmlns="http://www.w3.org/2000/svg">
<path d="M4.44253 11.0647C4.82341 11.4646 5.45639 11.48 5.85632 11.0991C6.25625 10.7183 6.27169 10.0853 5.8908 9.68534L4.44253 11.0647ZM1 6L0.275862 5.31034C-0.091954 5.69655 -0.091954 6.30345 0.275862 6.68965L1 6ZM5.8908 2.31466C6.27169 1.91472 6.25625 1.28175 5.85632 0.900862C5.45639 0.519976 4.82341 0.535414 4.44253 0.935345L5.8908 2.31466ZM11 7C11.5523 7 12 6.55228 12 6C12 5.44772 11.5523 5 11 5V7ZM5.8908 9.68534L1.72414 5.31034L0.275862 6.68965L4.44253 11.0647L5.8908 9.68534ZM1.72414 6.68965L5.8908 2.31466L4.44253 0.935345L0.275862 5.31034L1.72414 6.68965ZM1 7H11V5H1V7Z" fill="white"/>
</svg>
